 <svg  version="1.0" xmlns="http://www.w3.org/2000/svg"  width="955.000000pt" height="1295.000000pt" viewBox="0 0 755.000000 995.000000"  preserveAspectRatio="xMidYMid meet">  <g transform="translate(0.000000,995.000000) scale(0.050000,-0.050000)" fill="#0dd0fc" stroke="none"> <path d="M8870 19880 c12 -19 -23 -28 -90 -25 -24 2 -23 -3 4 -23 26 -19 29 -31 11 -49 -17 -17 -17 -23 1 -23 22 0 32 26 26 65 -4 25 52 17 75 -12 13 -15 16 -35 8 -44 -8 -10 3 -5 25 11 59 43 63 48 27 35 -40 -15 -78 20 -63 57 6 16 0 28 -13 28 -13 0 -18 -9 -11 -20z"/> <path d="M1126 19687 c-634 -333 -673 -494 -186 -762 71 -39 180 -101 240 -138 292 -176 400 -53 400 456 0 545 -92 635 -454 444z m270 -147 c32 0 15 -580 -16 -582 -21 -1 -22 -4 -5 -11 46 -19 25 -40 -37 -37 -33 2 -69 16 -79 31 -9 16 -29 30 -43 31 -68 5 -78 9 -66 28 7 11 -1 14 -19 8 -17 -7 -31 -2 -31 10 0 12 -13 22 -30 22 -16 0 -46 16 -66 36 -20 20 -46 33 -57 30 -37 -13 -146 101 -142 148 2 24 7 41 11 36 5 -4 31 19 58 51 49 58 102 83 74 34 -8 -14 16 7 54 47 38 39 85 69 104 67 19 -3 34 3 34 14 0 11 9 14 20 7 22 -14 85 39 67 56 -6 6 6 8 26 5 20 -3 55 1 77 9 27 10 42 6 46 -12 4 -16 13 -28 20 -28z"/> <path d="M8647 19716 c19 -10 42 -13 53 -6 11 7 20 3 20 -10 0 -15 11 -15 37 -1 21 11 43 14 50 7 7 -7 13 -3 13 8 0 12 -45 21 -103 21 -73 0 -93 -6 -70 -19z"/> <path d="M945 18379 c-541 -107 -609 -853 -102 -1111 l107 -54 2533 12 c2526 11 2534 11 2632 54 465 200 433 952 -46 1086 -134 37 -4938 50 -5124 13z m1746 -137 c-13 -21 174 -14 211 9 21 13 21 7 -2 -21 -22 -28 -23 -33 -3 -21 47 28 330 32 347 5 12 -18 15 -18 16 1 0 15 27 25 70 25 40 0 70 -10 70 -23 0 -13 6 -18 13 -11 7 8 27 2 44 -11 19 -16 26 -16 17 -2 -8 13 3 27 26 33 22 6 35 3 30 -6 -6 -10 -2 -23 10 -30 11 -7 20 -3 20 9 0 12 37 20 89 18 58 -2 85 -11 76 -25 -7 -12 3 -10 21 5 22 18 34 20 34 5 0 -12 10 -22 21 -22 12 0 16 9 9 20 -7 11 2 20 19 20 17 0 31 -7 31 -16 0 -8 24 -17 54 -20 52 -4 52 -3 15 26 -38 30 -38 30 1 17 22 -8 46 -23 53 -34 9 -13 25 -11 45 6 22 17 32 18 32 3 0 -12 10 -22 21 -22 12 0 16 9 9 20 -18 29 37 25 69 -5 22 -20 24 -20 12 1 -13 22 -8 22 26 1 35 -21 46 -21 68 1 20 23 20 25 -3 12 -18 -10 -23 -8 -16 4 7 12 65 21 129 21 63 0 160 2 215 4 55 3 105 3 110 1 6 -1 280 -4 609 -5 399 -1 623 -9 670 -25 152 -50 201 -75 201 -102 0 -15 8 -28 17 -28 49 0 102 -236 59 -263 -20 -13 -21 -16 -1 -17 14 0 25 -13 25 -29 0 -20 -12 -26 -35 -18 -29 10 -28 6 5 -22 27 -22 32 -37 16 -44 -13 -5 -19 -22 -13 -37 5 -15 -9 -46 -31 -68 -23 -23 -42 -55 -42 -72 0 -16 -13 -30 -30 -30 -16 0 -30 -10 -30 -22 0 -13 -18 -18 -40 -12 -25 6 -35 2 -27 -11 9 -14 -3 -17 -34 -9 -26 7 -56 5 -68 -5 -18 -15 -159 -31 -191 -22 -47 13 -220 12 -220 -1 0 -9 -11 -12 -25 -7 -43 16 -415 20 -415 4 0 -8 -27 -15 -60 -15 -33 0 -60 10 -60 22 0 16 -7 17 -25 2 -18 -14 -335 -19 -994 -14 -673 6 -977 2 -995 -13 -19 -16 -34 -15 -54 1 -34 28 -775 22 -796 -7 -8 -12 -33 -9 -63 8 -28 14 -64 21 -82 14 -65 -25 -669 -19 -701 7 -16 14 -30 16 -30 6 0 -11 -41 -14 -98 -6 -54 7 -118 5 -142 -4 -36 -13 -42 -10 -32 17 11 27 8 29 -17 7 -26 -20 -38 -17 -72 23 -23 26 -36 36 -29 22 17 -34 -6 -31 -43 5 -16 16 -23 40 -15 53 10 16 4 20 -19 11 -22 -8 -33 -2 -33 18 0 18 -9 25 -23 16 -16 -10 -20 -4 -12 16 7 17 3 40 -8 51 -24 24 -36 267 -12 252 9 -6 10 14 3 44 -10 39 -7 51 9 41 13 -8 19 -4 13 12 -12 32 6 59 69 102 28 19 39 34 25 34 -42 0 -26 31 18 35 23 1 53 18 67 37 17 23 42 31 78 24 29 -6 53 -5 53 2 0 7 365 13 812 13 446 -1 816 6 821 14 5 8 18 15 29 15 11 0 15 -8 9 -18z"/> <path d="M7042 18366 c-477 -172 -478 -928 -2 -1096 159 -56 1005 -51 1132 6 444 201 427 939 -24 1086 -128 41 -994 45 -1106 4z m311 -121 c-5 -8 130 -13 300 -11 264 4 310 0 321 -26 9 -25 15 -26 28 -5 12 19 17 19 18 3 0 -13 18 -20 41 -16 23 5 58 -9 80 -31 21 -21 44 -39 49 -39 6 0 20 0 31 0 12 0 16 -8 10 -18 -6 -10 3 -23 20 -30 18 -6 27 -20 21 -29 -6 -10 4 -32 23 -49 48 -43 40 -372 -7 -332 -24 19 -27 18 -16 -9 7 -18 23 -33 35 -34 13 0 7 -13 -13 -28 -20 -15 -38 -35 -40 -44 -2 -9 -10 -15 -18 -12 -8 2 -25 -14 -36 -36 -12 -22 -30 -35 -39 -29 -10 6 -32 -4 -49 -21 -18 -17 -57 -36 -87 -41 -30 -5 -72 -15 -93 -21 -20 -6 -32 -3 -25 8 6 10 -1 18 -17 18 -16 0 -24 -7 -18 -16 6 -9 -44 -17 -111 -17 -66 0 -121 8 -121 18 0 21 -38 19 -73 -4 -34 -21 -212 -12 -242 11 -14 11 -52 15 -84 8 -33 -6 -65 -3 -71 8 -7 10 -38 19 -70 19 -62 0 -188 91 -169 122 7 11 1 17 -12 13 -13 -3 -35 29 -50 70 -20 57 -21 75 -3 77 18 1 17 4 -1 11 -14 6 -25 24 -25 40 0 16 9 24 20 17 11 -7 20 1 20 17 0 16 -10 33 -22 37 -43 14 28 207 73 200 27 -4 31 0 14 11 -19 13 -9 35 38 86 35 38 57 58 49 44 -17 -30 12 -33 41 -4 11 11 78 33 149 48 70 15 131 29 134 29 4 1 2 -5 -3 -13z"/> <path d="M8887 18278 c2 -61 11 -91 28 -91 18 0 20 6 6 20 -28 28 -27 59 1 42 15 -10 16 -3 3 24 -11 20 -24 51 -30 67 -5 17 -9 -11 -8 -62z"/> <path d="M897 16869 c-514 -159 -508 -977 9 -1131 119 -36 3307 -23 3418 14 498 163 514 949 23 1116 -134 46 -3302 46 -3450 1z m720 -138 c95 -1 198 4 228 12 30 8 55 8 55 1 0 -8 52 -12 115 -10 180 5 465 7 845 6 193 -1 355 0 360 2 6 1 19 1 30 -2 11 -2 104 -3 207 -1 127 2 197 -5 219 -23 24 -19 28 -20 17 -1 -12 19 13 25 101 25 82 -1 107 -6 86 -20 -18 -12 -20 -20 -6 -20 13 0 30 10 38 23 12 19 155 17 383 -7 14 -1 25 -17 25 -34 1 -28 3 -28 20 -2 17 26 19 25 20 -5 0 -19 10 -35 23 -35 33 0 120 -99 106 -121 -6 -11 -3 -19 7 -19 33 0 67 -102 44 -130 -12 -15 -14 -31 -5 -37 27 -17 8 -176 -25 -213 -17 -18 -23 -40 -15 -49 8 -9 -7 -9 -35 -1 -49 14 -49 13 -10 -19 22 -19 29 -28 15 -21 -15 7 -25 0 -25 -19 0 -17 -7 -29 -15 -27 -8 3 -38 -10 -65 -29 -28 -18 -85 -35 -127 -38 -43 -3 -82 -17 -87 -31 -12 -30 -78 -35 -95 -8 -6 10 -70 19 -142 20 -82 1 -126 -6 -119 -18 7 -11 3 -20 -9 -20 -11 0 -21 8 -21 17 0 9 -29 14 -65 10 -59 -6 -286 -6 -670 1 -80 1 -145 -5 -145 -13 0 -8 -90 -15 -200 -15 -120 0 -200 8 -200 20 0 11 -20 19 -45 19 -43 -2 -43 -3 -5 -21 43 -20 -215 -8 -306 15 -35 9 -46 6 -36 -10 10 -15 -5 -23 -44 -23 -108 0 -303 26 -295 39 5 7 -65 5 -155 -4 -90 -9 -180 -12 -199 -7 -19 4 -35 2 -35 -5 0 -7 -49 -14 -109 -15 -73 -1 -105 6 -97 20 6 12 0 11 -15 -3 -32 -30 -87 -34 -69 -5 7 11 -1 15 -17 8 -17 -6 -49 -1 -71 11 -31 16 -42 16 -42 0 0 -12 -14 -8 -31 10 -18 17 -43 31 -56 31 -13 0 -48 27 -77 60 -29 33 -44 60 -33 60 11 0 6 14 -10 30 -17 17 -27 48 -23 70 4 22 -1 40 -11 40 -11 0 -19 18 -19 40 0 22 11 40 25 40 17 1 18 5 3 15 -28 19 -49 125 -24 125 10 0 14 8 8 17 -6 10 7 34 28 53 21 19 34 43 28 53 -6 9 -2 17 8 17 11 0 24 18 30 40 6 23 27 40 50 40 22 0 45 15 52 32 8 20 27 29 52 22 21 -5 37 -1 34 9 -2 10 89 20 211 22 118 2 215 11 215 20 0 10 10 11 22 4 13 -8 100 -16 195 -18z"/> <path d="M5222 16838 c-358 -179 -421 -696 -117 -969 173 -155 127 -151 1647 -145 l1338 6 103 54 c354 187 420 698 126 963 -177 159 -114 153 -1629 153 l-1344 0 -124 -62z m380 -108 c28 2 62 10 75 18 12 8 23 6 23 -5 0 -11 40 -15 93 -9 64 6 98 1 109 -17 11 -17 18 -18 18 -4 0 31 160 32 161 1 0 -13 9 -9 20 10 16 28 31 31 71 15 65 -25 73 -24 56 4 -9 16 -5 18 13 7 15 -10 423 -19 908 -22 950 -6 935 -5 917 -34 -7 -12 9 -16 41 -10 46 9 50 6 28 -21 -17 -21 -17 -26 -1 -17 13 8 29 5 36 -6 7 -11 20 -16 28 -11 38 23 110 -103 105 -184 -1 -25 6 -45 17 -45 11 0 20 -19 20 -41 0 -23 -9 -36 -20 -29 -11 7 -20 -2 -20 -20 0 -20 9 -27 25 -18 20 11 20 8 0 -13 -14 -15 -25 -45 -25 -68 1 -34 4 -36 20 -11 17 26 19 26 20 -3 0 -18 -14 -38 -30 -44 -17 -7 -29 -19 -28 -27 8 -47 -5 -86 -29 -86 -15 0 -37 -24 -51 -53 -13 -29 -28 -48 -34 -42 -6 6 -43 -6 -84 -26 -46 -22 -81 -29 -93 -18 -10 11 -28 19 -40 19 -12 0 -7 -9 9 -20 20 -13 -11 -16 -95 -11 -75 5 -121 1 -114 -10 6 -11 -12 -19 -41 -19 -33 0 -47 8 -39 22 10 16 3 16 -26 1 -28 -15 -45 -15 -62 2 -17 17 -29 17 -47 -1 -18 -18 -30 -17 -53 1 -24 20 -28 20 -16 0 9 -15 5 -25 -12 -25 -15 0 -39 11 -54 25 -21 20 -24 20 -13 0 8 -14 5 -25 -7 -25 -11 0 -21 8 -21 17 0 10 -24 13 -53 7 -38 -7 -49 -3 -38 15 10 15 -7 12 -47 -8 -47 -24 -62 -26 -62 -7 -1 18 -6 17 -20 -4 -14 -23 -27 -25 -54 -8 -20 12 -54 19 -76 16 -124 -18 -160 -16 -154 11 5 24 1 24 -27 0 -36 -30 -89 -43 -89 -22 0 16 -308 12 -350 -4 -17 -7 -30 -5 -30 4 0 9 -27 16 -59 16 -33 0 -55 -6 -50 -14 5 -8 -14 -13 -41 -12 -30 2 -50 15 -50 33 0 18 -7 22 -15 10 -17 -23 -374 -28 -396 -5 -9 8 -27 5 -42 -8 -15 -12 -27 -16 -27 -9 0 7 -19 3 -41 -9 -26 -14 -50 -15 -65 -3 -45 35 -178 49 -197 20 -11 -17 -16 -18 -17 -3 0 13 -26 30 -57 36 -53 12 -172 111 -133 111 10 0 -6 25 -34 55 -31 34 -50 76 -48 109 2 29 -2 53 -7 52 -35 -3 -48 7 -27 20 13 8 28 68 33 134 12 143 4 123 58 138 26 7 37 18 25 27 -13 9 -2 33 28 62 40 39 46 41 35 10 -12 -31 -8 -31 22 6 50 60 104 82 190 78 41 -2 75 6 75 18 1 14 5 14 15 0 8 -12 38 -21 67 -19z"/> <path d="M884 15303 c-464 -165 -510 -834 -74 -1070 121 -65 719 -65 841 1 408 218 389 865 -29 1052 -136 61 -587 71 -738 17z m476 -143 c0 -9 18 -12 40 -6 22 6 40 1 40 -12 0 -12 18 -22 40 -22 22 0 40 11 40 25 1 18 5 17 18 -3 10 -15 26 -22 37 -15 18 11 121 -87 128 -122 2 -8 14 -24 27 -35 29 -24 57 -97 32 -81 -10 6 -16 -12 -15 -39 3 -47 5 -48 30 -15 25 32 27 30 13 -15 -8 -27 -17 -86 -19 -130 -2 -44 -14 -99 -27 -122 -12 -24 -16 -50 -8 -60 8 -9 -1 -6 -18 8 -28 21 -31 18 -22 -29 8 -44 4 -51 -24 -41 -19 8 -29 6 -23 -4 6 -10 -3 -23 -19 -29 -17 -7 -30 -3 -30 9 0 11 -22 -4 -49 -33 -44 -47 -60 -52 -161 -44 -62 4 -116 1 -121 -7 -10 -15 -42 -12 -183 18 -47 10 -80 11 -74 1 6 -9 1 -17 -10 -17 -11 0 -25 9 -32 20 -7 11 -33 20 -59 20 -48 0 -100 44 -78 66 7 7 -7 9 -30 5 -23 -5 -41 -2 -38 5 2 8 -13 44 -32 80 -23 44 -32 89 -24 130 9 54 8 57 -8 19 -21 -47 -47 -64 -30 -19 6 14 13 77 16 139 4 88 17 127 54 169 36 41 39 47 9 26 -22 -16 -13 1 19 36 33 36 72 60 86 55 15 -6 22 -2 16 8 -14 22 35 39 148 50 47 5 88 11 92 15 14 14 249 10 249 -4z"/> <path d="M2539 15310 c-361 -114 -496 -644 -237 -939 178 -203 255 -216 1231 -208 l760 7 118 60 c416 213 410 834 -11 1053 -114 59 -1685 82 -1861 27z m311 -139 c33 0 71 7 85 16 14 8 25 8 25 -1 0 -22 983 -20 1018 2 19 13 24 11 14 -5 -10 -17 25 -23 127 -23 81 0 141 -9 141 -20 0 -11 30 -20 67 -20 50 0 73 -12 93 -50 15 -27 34 -50 44 -50 70 0 95 -370 32 -494 -23 -47 -49 -80 -59 -74 -9 6 -17 -4 -17 -21 0 -29 -35 -41 -97 -32 -15 2 -21 -6 -14 -18 7 -11 6 -22 -3 -23 -9 -1 -43 -4 -76 -7 -91 -10 -1215 -12 -1420 -4 -211 9 -272 22 -302 62 -12 17 -26 26 -32 21 -5 -6 -27 9 -48 33 -24 28 -27 38 -8 27 17 -9 9 4 -16 29 -26 25 -42 58 -36 73 6 15 2 28 -9 28 -27 0 -24 67 6 99 21 22 18 24 -14 13 -38 -14 -38 -13 0 31 22 24 28 37 14 29 -18 -10 -25 6 -25 57 0 46 11 76 30 84 16 6 25 19 19 28 -5 9 6 26 26 37 19 12 27 21 17 21 -24 1 68 90 123 119 25 13 55 18 65 12 11 -7 20 -2 20 10 0 13 16 18 35 12 19 -6 48 -3 64 7 17 11 35 13 40 5 6 -8 38 -14 71 -13z"/> <path d="M919 13753 c-510 -139 -556 -883 -68 -1106 l104 -48 2547 6 2548 5 80 43 c427 231 421 846 -10 1070 l-90 47 -2510 4 c-1944 3 -2531 -2 -2601 -21z m961 -151 c303 -1 710 -2 905 -3 195 -1 371 -1 390 0 19 1 314 2 655 2 686 -1 731 -1 1563 5 473 3 580 -1 562 -22 -17 -20 -10 -21 34 -4 45 17 54 15 45 -6 -6 -15 2 -27 17 -27 15 0 22 9 17 21 -6 12 3 5 21 -17 17 -21 31 -46 31 -55 0 -9 14 -16 30 -16 17 0 30 -12 30 -28 0 -15 20 -41 45 -57 52 -34 81 -333 29 -302 -15 9 -14 2 3 -19 18 -22 20 -34 6 -34 -12 0 -28 -25 -36 -55 -19 -78 -76 -148 -101 -123 -13 13 -29 8 -48 -16 -26 -33 -25 -34 12 -7 38 27 38 27 8 -7 -18 -19 -67 -39 -109 -43 -41 -3 -81 -15 -87 -25 -7 -11 -182 -16 -412 -12 -220 3 -413 6 -430 6 -16 0 -286 -2 -600 -4 -313 -3 -590 2 -614 10 -25 8 -49 8 -53 0 -5 -8 -209 -9 -453 -4 -244 6 -448 4 -452 -3 -13 -21 -1655 -15 -1681 6 -15 12 -28 12 -35 0 -7 -11 -49 -16 -94 -11 -89 8 -124 23 -110 45 5 9 -15 15 -44 14 -32 -1 -52 9 -49 23 2 14 -7 20 -22 15 -14 -6 -43 9 -64 34 -22 24 -26 36 -11 27 20 -11 24 -9 13 8 -8 14 -28 20 -43 14 -19 -7 -28 4 -28 35 0 25 -11 57 -25 72 -20 21 -20 24 0 13 14 -8 25 -5 25 7 0 11 -8 21 -18 21 -10 0 -18 25 -19 55 -1 30 -2 78 -2 105 -2 54 59 207 75 191 5 -6 25 19 44 55 19 35 47 64 62 64 16 0 41 12 57 27 20 19 56 24 123 15 52 -7 99 -6 105 3 5 8 48 14 96 12 48 -2 335 -4 637 -5z"/> <path d="M903 12211 c-497 -157 -538 -874 -63 -1089 140 -64 2220 -64 2360 0 444 200 444 857 0 1066 -115 54 -2134 74 -2297 23z m2068 -153 c7 -10 20 -13 30 -7 11 6 19 0 19 -15 0 -16 6 -18 15 -6 23 31 91 24 133 -14 21 -19 44 -31 51 -27 7 5 24 -10 38 -32 21 -34 21 -38 -1 -26 -14 8 1 -11 35 -43 52 -49 61 -72 59 -152 -1 -51 6 -88 16 -82 10 6 7 -9 -5 -33 -17 -31 -18 -51 -3 -69 15 -18 12 -36 -13 -64 -86 -98 -113 -134 -89 -119 22 13 22 8 0 -27 -14 -24 -39 -40 -56 -37 -16 4 -40 -7 -53 -24 -19 -25 -28 -25 -56 -2 -28 24 -32 24 -27 0 4 -21 -10 -27 -51 -22 -40 5 -53 -1 -43 -17 11 -18 5 -19 -23 -6 -20 11 -102 18 -181 16 -87 -1 -139 5 -132 17 8 12 1 12 -16 2 -34 -21 -577 -27 -590 -6 -5 8 -47 3 -94 -11 -47 -14 -103 -22 -125 -18 -92 19 -405 16 -394 -4 8 -13 3 -13 -16 1 -16 11 -117 20 -224 18 -107 -1 -195 3 -195 10 0 6 -24 12 -53 14 -29 2 -61 18 -71 35 -10 18 -26 28 -36 22 -9 -6 -23 7 -30 29 -6 21 -30 45 -51 51 -21 7 -40 28 -41 46 0 19 -4 50 -8 69 -3 19 2 40 13 47 11 7 12 21 1 35 -10 13 -20 39 -21 58 -8 125 -5 144 28 168 20 15 28 27 18 28 -11 0 -4 9 15 20 21 12 29 33 22 53 -10 25 -5 30 22 20 19 -8 29 -6 23 4 -6 10 12 32 39 50 28 18 50 28 50 21 0 -6 18 1 40 17 48 33 2011 45 2031 12z"/> <path d="M4179 12213 c-506 -137 -536 -929 -42 -1105 103 -37 963 -37 1066 0 486 173 468 954 -24 1100 -134 40 -857 43 -1000 5z m881 -156 c0 -11 8 -14 19 -8 10 6 24 2 31 -9 7 -11 21 -16 31 -10 22 14 123 -36 158 -79 21 -26 21 -31 -2 -32 -15 0 -9 -11 15 -25 23 -13 38 -35 33 -49 -4 -14 2 -25 15 -25 12 0 17 -8 11 -18 -6 -10 0 -24 14 -30 15 -7 17 -16 5 -22 -11 -5 -19 -68 -18 -140 1 -71 -5 -130 -14 -130 -9 0 -12 -13 -6 -28 12 -32 -69 -116 -96 -100 -9 6 -16 4 -14 -6 9 -55 -5 -70 -54 -57 -37 9 -47 6 -36 -12 10 -17 4 -20 -22 -10 -20 8 -42 6 -49 -5 -7 -11 -48 -20 -92 -20 -340 0 -696 -4 -715 -7 -13 -3 -23 4 -21 15 2 11 -23 22 -55 24 -51 4 -175 66 -131 66 8 0 -10 23 -41 52 -31 28 -56 67 -56 85 0 18 -6 42 -13 53 -48 81 64 515 119 460 6 -5 25 3 42 19 18 15 59 33 92 38 33 5 60 11 60 13 0 20 461 15 474 -5 12 -20 15 -20 16 0 0 14 10 25 21 25 12 0 15 -11 6 -25 -10 -17 -4 -16 19 2 19 15 56 23 84 18 27 -5 50 -3 50 4 0 8 27 10 60 5 33 -5 60 -17 60 -27z"/> <path d="M851 10740 c-472 -185 -448 -964 35 -1099 150 -42 604 -21 705 33 425 224 380 923 -68 1075 -137 47 -543 41 -672 -9z m574 -149 c19 -8 31 -21 27 -28 -5 -7 19 -15 53 -17 56 -4 146 -62 127 -81 -5 -5 9 -26 30 -47 59 -59 54 -358 -7 -466 -57 -100 -206 -186 -262 -152 -20 13 -32 14 -25 4 7 -12 -66 -19 -187 -18 -116 1 -194 9 -187 20 6 10 -8 12 -33 4 -31 -9 -53 -3 -74 23 -16 20 -23 24 -15 7 14 -27 11 -27 -23 -1 -67 51 -119 110 -113 128 3 9 -5 30 -18 45 -12 15 -15 28 -5 28 9 0 4 9 -12 19 -25 16 -25 23 0 53 18 22 20 30 4 21 -17 -10 -25 -2 -25 26 0 22 7 41 16 41 24 0 28 135 5 150 -24 14 -6 40 117 162 48 48 93 83 101 79 7 -5 26 -1 41 9 33 20 414 13 465 -9z"/> <path d="M645 9225 c-111 -104 -117 -828 -8 -937 100 -99 297 -40 665 202 307 200 325 336 68 501 -438 280 -614 337 -725 234z m295 -162 c5 -7 43 -31 84 -52 41 -22 70 -43 65 -48 -5 -5 27 -26 71 -45 45 -20 86 -50 92 -67 17 -43 49 -39 35 4 -8 25 -2 22 21 -9 18 -23 28 -64 24 -90 -5 -25 -10 -53 -11 -61 0 -8 -15 -15 -32 -15 -17 0 -26 -9 -19 -20 11 -18 3 -21 -40 -20 -6 1 -35 -22 -65 -50 -30 -28 -73 -56 -95 -62 -94 -27 -150 -60 -150 -88 0 -18 -7 -22 -15 -10 -20 27 -71 36 -55 10 9 -14 -5 -19 -37 -15 -57 8 -96 35 -51 35 24 1 24 3 0 18 -22 14 -23 31 -6 81 13 34 14 57 4 51 -26 -16 -18 433 7 467 20 26 151 16 173 -14z"/> </g> </svg> 